<?xml version="1.0" standalone="no"?>
<!DOCTYPE svg PUBLIC "-//W3C//DTD SVG 20010904//EN"
 "http://www.w3.org/TR/2001/REC-SVG-20010904/DTD/svg10.dtd">
<svg version="1.0" xmlns="http://www.w3.org/2000/svg"
 width="512.000000pt" height="512.000000pt" viewBox="0 0 512.000000 512.000000"
 preserveAspectRatio="xMidYMid meet">
<metadata>
Created by potrace 1.14, written by Peter Selinger 2001-2017
</metadata>
<g transform="translate(0.000000,512.000000) scale(0.100000,-0.100000)"
fill="#000000" stroke="none">
<path d="M573 5009 c-208 -35 -387 -192 -465 -409 l-23 -65 0 -1975 0 -1975
23 -65 c36 -100 79 -169 151 -241 72 -72 141 -115 241 -151 l65 -23 1985 0
1985 0 65 23 c100 36 169 79 241 151 72 72 115 141 151 241 l23 65 0 1975 0
1975 -23 65 c-36 100 -79 169 -151 241 -72 72 -141 115 -241 151 l-65 23
-1955 1 c-1093 1 -1978 -2 -2007 -7z m3736 -1064 c211 -50 396 -235 446 -446
22 -96 22 -2582 0 -2678 -50 -211 -235 -396 -446 -446 -97 -22 -3391 -22
-3488 0 -211 50 -396 235 -446 446 -22 96 -22 2582 0 2678 49 208 235 395 442
445 90 22 3399 23 3492 1z"/>
<path d="M2450 3289 c-114 -22 -241 -122 -294 -230 -80 -166 -48 -359 83 -490
131 -131 324 -163 490 -83 72 35 160 123 195 195 155 319 -123 677 -474 608z"/>
<path d="M3840 3289 c-114 -22 -241 -122 -294 -230 -80 -166 -48 -359 83 -490
131 -131 324 -163 490 -83 72 35 160 123 195 195 155 319 -123 677 -474 608z"/>
<path d="M1090 1819 c-114 -22 -241 -122 -294 -230 -80 -166 -48 -359 83 -490
170 -169 432 -169 602 0 169 170 169 432 0 602 -106 105 -244 147 -391 118z"/>
<path d="M2436 1820 c-116 -30 -233 -130 -289 -247 -30 -63 -32 -76 -32 -173
0 -97 2 -110 32 -173 44 -93 119 -169 212 -215 72 -36 79 -37 181 -37 102 0
109 1 181 37 93 46 168 122 212 215 30 63 32 76 32 173 0 97 -2 110 -32 173
-44 92 -119 169 -209 214 -64 31 -84 36 -161 39 -48 2 -105 -1 -127 -6z"/>
<path d="M3840 1819 c-114 -22 -241 -122 -294 -230 -80 -166 -48 -359 83 -490
131 -131 324 -163 490 -83 72 35 160 123 195 195 155 319 -123 677 -474 608z"/>
</g>
</svg>
